<svg xmlns="http://www.w3.org/2000/svg" viewBox="0 0 109.3 66.3"><defs><style>.cls-1,.cls-3{fill:#2e2e2e;}.cls-1,.cls-2{stroke:#000;stroke-miterlimit:10;}.cls-2{fill:#5e8185;stroke-width:2px;}</style></defs><g id="Layer_2" data-name="Layer 2"><g id="Layer_1-2" data-name="Layer 1"><rect class="cls-1" x="0.5" y="27.76" width="108.3" height="10.78" rx="3.89"/><circle class="cls-2" cx="54.41" cy="33.15" r="32.15"/><path class="cls-3" d="M63.07,46l-1.68-4.39H47.15l-1.68,4.49a15.7,15.7,0,0,1-1.67,3.55,2.67,2.67,0,0,1-2.27.92,3.35,3.35,0,0,1-2.37-1,3,3,0,0,1-1-2.22,5,5,0,0,1,.24-1.49c.16-.51.42-1.21.79-2.12l9-22.76c.25-.65.56-1.44.92-2.35a11.89,11.89,0,0,1,1.14-2.29,4.75,4.75,0,0,1,1.61-1.47,4.93,4.93,0,0,1,2.45-.56,5,5,0,0,1,2.47.56,4.86,4.86,0,0,1,1.6,1.45,9.93,9.93,0,0,1,1,1.9c.28.68.63,1.58,1.06,2.71L69.57,43.6a11.23,11.23,0,0,1,1.07,3.75,3.11,3.11,0,0,1-1,2.23,3.35,3.35,0,0,1-2.45,1,3.19,3.19,0,0,1-1.44-.3,2.93,2.93,0,0,1-1-.81,7.43,7.43,0,0,1-.87-1.58C63.56,47.2,63.29,46.58,63.07,46ZM49,36.3H59.48L54.2,21.84Z"/></g></g></svg>