<svg xmlns="http://www.w3.org/2000/svg" viewBox="0 0 103.87 30.22"><defs><style>.cls-1{fill:#4d4d4d;}.cls-1,.cls-2,.cls-3{stroke:#000;}.cls-1,.cls-2,.cls-3,.cls-4,.cls-5,.cls-6,.cls-7{stroke-miterlimit:10;}.cls-1,.cls-2,.cls-4{stroke-width:1.5px;}.cls-2{fill:#85655e;}.cls-3{fill:gray;}.cls-4,.cls-5,.cls-6,.cls-7{fill:none;stroke-linecap:round;}.cls-4{stroke:#999;}.cls-5{stroke:#39b54a;}.cls-6{stroke:#fbb03b;}.cls-7{stroke:#c1272d;}</style></defs><g id="Layer_2" data-name="Layer 2"><g id="Layer_1-2" data-name="Layer 1"><path class="cls-1" d="M66.92.75V29.47H3.22A2.47,2.47,0,0,1,.75,27V3.22A2.48,2.48,0,0,1,3.22.75Z"/><path class="cls-2" d="M97.18,5.23V25a4.47,4.47,0,0,1-4.48,4.48H66.92V.75H92.7A4.48,4.48,0,0,1,97.18,5.23Z"/><path class="cls-3" d="M103.37,10.56v9.09a1.09,1.09,0,0,1-1.13,1H97.18V9.53h5.06A1.09,1.09,0,0,1,103.37,10.56Z"/><line class="cls-4" x1="84.34" y1="15.8" x2="92.34" y2="15.8"/><line class="cls-4" x1="88.34" y1="19.8" x2="88.34" y2="11.8"/><line class="cls-4" x1="6.97" y1="16.3" x2="14.97" y2="16.3"/><line class="cls-5" x1="61.27" y1="26.92" x2="61.68" y2="23.66"/><line class="cls-5" x1="62.95" y1="26.93" x2="63.36" y2="23.67"/><line class="cls-6" x1="59.55" y1="26.92" x2="59.96" y2="23.66"/><line class="cls-6" x1="57.87" y1="26.92" x2="58.28" y2="23.66"/><line class="cls-6" x1="56.2" y1="26.92" x2="56.62" y2="23.65"/><line class="cls-7" x1="54.48" y1="26.91" x2="54.89" y2="23.65"/><line class="cls-7" x1="52.8" y1="26.91" x2="53.22" y2="23.65"/></g></g></svg>