<svg xmlns="http://www.w3.org/2000/svg" viewBox="0 0 109.47 108.89"><defs><style>.cls-1{fill:#2e2e2e;}.cls-1,.cls-3{stroke:#000;}.cls-1,.cls-2,.cls-3{stroke-miterlimit:10;}.cls-2{fill:none;stroke:gray;stroke-linecap:round;}.cls-3{fill:#85655e;}</style></defs><g id="Layer_2" data-name="Layer 2"><g id="Layer_1-2" data-name="Layer 1"><path class="cls-1" d="M4.4,48.3H39.32V1.5a1,1,0,0,1,1-1h5.5a1,1,0,0,1,1,1V107.38a1,1,0,0,1-1,1H40.32a1,1,0,0,1-1-1V59.22H4.4a3.91,3.91,0,0,1-3.9-3.9V52.2A3.91,3.91,0,0,1,4.4,48.3Z"/><line class="cls-2" x1="41.42" y1="4.98" x2="44.62" y2="4.98"/><line class="cls-2" x1="43.02" y1="6.58" x2="43.02" y2="3.38"/><path class="cls-1" d="M105.07,48.3H70.13V1.5a1,1,0,0,0-1-1h-5.5a1,1,0,0,0-1,1V107.38a1,1,0,0,0,1,1h5.49a1,1,0,0,0,1-1V59.22h34.94a3.91,3.91,0,0,0,3.9-3.9V52.2A3.91,3.91,0,0,0,105.07,48.3Z"/><line class="cls-2" x1="64.83" y1="4.98" x2="68.03" y2="4.98"/><rect class="cls-3" x="46.82" y="6.98" width="15.81" height="94.92"/></g></g></svg>