<svg xmlns="http://www.w3.org/2000/svg" viewBox="0 0 109.85 33.17"><defs><style>.cls-1{fill:gray;}.cls-1,.cls-2{stroke:#000;stroke-miterlimit:10;}.cls-2{fill:#2e2e2e;}</style></defs><g id="Layer_2" data-name="Layer 2"><g id="Layer_1-2" data-name="Layer 1"><rect class="cls-1" x="17.47" y="0.5" width="75.46" height="32.17" rx="3.89"/><rect class="cls-2" x="17.47" y="14.28" width="75.44" height="4.61"/><path class="cls-2" d="M92.92,11.2h12.55a3.89,3.89,0,0,1,3.89,3.89v3A3.89,3.89,0,0,1,105.46,22H92.92a0,0,0,0,1,0,0V11.2A0,0,0,0,1,92.92,11.2Z"/><path class="cls-2" d="M4.39,11.2H17.47a0,0,0,0,1,0,0V22a0,0,0,0,1,0,0H4.39A3.89,3.89,0,0,1,.5,18.08v-3A3.89,3.89,0,0,1,4.39,11.2Z"/></g></g></svg>