<svg xmlns="http://www.w3.org/2000/svg" viewBox="0 0 61.67 104.89"><defs><style>.cls-1{fill:#fcf17b;}.cls-2{fill:#4d4d4d;}.cls-3{fill:#333;}.cls-4,.cls-5{stroke:#000;stroke-miterlimit:10;}.cls-5{fill:#7a7a7a;}</style></defs><g id="Layer_2" data-name="Layer 2"><g id="Layer_1-2" data-name="Layer 1"><path class="cls-1" d="M39.57,80.8c6.32-23,35.16-48.3,11.37-72.63C34.58-5.24,7.82,2.34,2,23.11-1.74,44,17.09,61,21.43,80.1"/><path d="M41,81.2c1.81-6.51,5.06-12.53,8.26-18.45,3.36-6.19,6.82-12.37,9.34-19,2.37-6.21,3.74-12.85,2.69-19.48a28.5,28.5,0,0,0-3.46-9.61,28.34,28.34,0,0,0-7.37-8.77C40.66-1.29,27.11-1.76,16.37,3.67A31.29,31.29,0,0,0,3.56,15.58a23.82,23.82,0,0,0-3.31,9A34.65,34.65,0,0,0,.69,35.53c2.79,14.55,13,26.16,17.82,39.93a46.16,46.16,0,0,1,1.47,5c.44,1.88,3.33,1.09,2.9-.8C19.69,66,10.31,54.85,5.56,41.75,3.32,35.59,1.74,28.09,4,21.71A27.31,27.31,0,0,1,14,8.57C23.12,2.19,35.63,1,45.5,6.33A27.75,27.75,0,0,1,49.21,8.7a20.93,20.93,0,0,1,3.73,4,28.16,28.16,0,0,1,4.76,9.19c1.75,6,.95,12.32-1,18.21C52.63,52.82,44.29,63.61,39.56,76c-.54,1.44-1,2.89-1.43,4.37A1.5,1.5,0,0,0,41,81.2Z"/><path class="cls-2" d="M23.87,52.89a8.52,8.52,0,0,0,1.3-.89l.21-.15c-.28-.16-.34-.13-.17.11a1.57,1.57,0,0,0,.25.5,2,2,0,0,0,1.73,1.18,1.43,1.43,0,0,0,1.41-1.1,2.29,2.29,0,0,0,.08-.56l-.31.19.23.27a1.48,1.48,0,0,0,1.92.36,3.94,3.94,0,0,0,.53-.38c.06,0,.42-.29.33-.3s.08.23.16.37a1.49,1.49,0,0,0,.27.35,1.19,1.19,0,0,0,.91.3,2,2,0,0,0,.84-.35c.4-.25.42-.24.86-.06a11.61,11.61,0,0,1,2.74,1.34c.78.57,1.52-.73.75-1.29a10.84,10.84,0,0,0-2.59-1.3A2.31,2.31,0,0,0,33,51.36c-.14.08-.26.19-.41.26.22.1.26.06.12-.14l-.07-.16a1.32,1.32,0,0,0-.87-.64,1.69,1.69,0,0,0-1.12.2,3.3,3.3,0,0,0-.49.34c-.24.17-.32.28-.45.23s-.24-.31-.35-.41a2,2,0,0,0-.45-.31,1.18,1.18,0,0,0-1.05,0,1.22,1.22,0,0,0-.63.82c0,.11,0,.45-.07.53s0,.13-.16,0c-.67-.45-.47-1.56-1.43-1.74s-1.82.83-2.46,1.28c-.79.54,0,1.84.75,1.29Z"/><path class="cls-3" d="M20.5,52a145.12,145.12,0,0,1,4.93,25.12c.2,1.9,3.2,1.92,3,0a149.36,149.36,0,0,0-5-25.92,1.5,1.5,0,0,0-2.89.8Z"/><path class="cls-3" d="M39.05,50.46a9.93,9.93,0,0,0-2.89,5.16,74.81,74.81,0,0,0-1.54,7.55A129,129,0,0,0,33,79.09c-.07,1.93,2.93,1.93,3,0a121.94,121.94,0,0,1,1.46-14.65c.38-2.31.81-4.61,1.34-6.89.42-1.81.91-3.74,2.4-5s-.64-3.35-2.12-2.12Z"/><ellipse class="cls-4" cx="30.11" cy="97.83" rx="7.06" ry="6.56"/><rect class="cls-5" x="16.49" y="78.08" width="27.23" height="4.53" rx="1.68" transform="translate(10.74 -3.24) rotate(7.5)"/><rect class="cls-5" x="16.62" y="83.54" width="27.23" height="4.53" rx="1.68" transform="translate(11.46 -3.21) rotate(7.5)"/><rect class="cls-5" x="16.74" y="89" width="27.23" height="4.53" rx="1.68" transform="translate(12.17 -3.18) rotate(7.5)"/><rect class="cls-5" x="16.86" y="94.47" width="27.23" height="4.53" rx="1.68" transform="translate(12.89 -3.15) rotate(7.5)"/></g></g></svg>