<svg xmlns="http://www.w3.org/2000/svg" viewBox="0 0 109.3 43.9"><defs><style>.cls-1{fill:#2e2e2e;}.cls-1,.cls-2{stroke:#000;stroke-miterlimit:10;}.cls-2{fill:#7a7a7a;}</style></defs><g id="Layer_2" data-name="Layer 2"><g id="Layer_1-2" data-name="Layer 1"><rect class="cls-1" x="0.5" y="16.56" width="108.3" height="10.78" rx="3.89"/><rect class="cls-2" x="-5.88" y="17.27" width="44.57" height="9.37" rx="3.89" transform="translate(-9.83 29.85) rotate(-70)"/><rect class="cls-2" x="5.04" y="17.27" width="44.57" height="9.37" rx="3.89" transform="translate(-2.64 40.12) rotate(-70)"/><rect class="cls-2" x="15.97" y="17.27" width="44.57" height="9.37" rx="3.89" transform="translate(4.55 50.39) rotate(-70)"/><rect class="cls-2" x="26.9" y="17.27" width="44.57" height="9.37" rx="3.89" transform="translate(11.74 60.66) rotate(-70)"/><rect class="cls-2" x="37.83" y="17.27" width="44.57" height="9.37" rx="3.89" transform="translate(18.93 70.93) rotate(-70)"/><rect class="cls-2" x="48.76" y="17.27" width="44.57" height="9.37" rx="3.89" transform="translate(26.12 81.2) rotate(-70)"/><rect class="cls-2" x="59.68" y="17.27" width="44.57" height="9.37" rx="3.89" transform="translate(33.31 91.47) rotate(-70)"/><rect class="cls-2" x="70.61" y="17.27" width="44.57" height="9.37" rx="3.89" transform="translate(40.5 101.74) rotate(-70)"/></g></g></svg>