<svg xmlns="http://www.w3.org/2000/svg" viewBox="0 0 109.3 43.22"><defs><style>.cls-1{fill:#2e2e2e;}.cls-1,.cls-2{stroke:#000;stroke-miterlimit:10;}.cls-2{fill:#666;}</style></defs><g id="Layer_2" data-name="Layer 2"><g id="Layer_1-2" data-name="Layer 1"><path class="cls-1" d="M24.44,14.34H79.37a1.25,1.25,0,0,1,1.25,1.25v8.28a1.25,1.25,0,0,1-1.25,1.25H24.44a3.89,3.89,0,0,1-3.89-3.89v-3a3.89,3.89,0,0,1,3.89-3.89Z" transform="translate(-3.09 27.93) rotate(-30)"/><path class="cls-1" d="M4.39,28.66H23.87a0,0,0,0,1,0,0V39.44a0,0,0,0,1,0,0H4.39A3.89,3.89,0,0,1,.5,35.55v-3A3.89,3.89,0,0,1,4.39,28.66Z"/><circle class="cls-2" cx="23.3" cy="34.05" r="8.67"/><path class="cls-1" d="M89.31,28.66H108.8a0,0,0,0,1,0,0V39.44a0,0,0,0,1,0,0H89.31a3.89,3.89,0,0,1-3.89-3.89v-3A3.89,3.89,0,0,1,89.31,28.66Z" transform="translate(194.22 68.1) rotate(-180)"/><circle class="cls-2" cx="85.99" cy="34.05" r="8.67"/></g></g></svg>