<svg xmlns="http://www.w3.org/2000/svg" viewBox="0 0 109.3 66.3"><defs><style>.cls-1,.cls-3{fill:#2e2e2e;}.cls-1,.cls-2{stroke:#000;stroke-miterlimit:10;}.cls-2{fill:#85655e;stroke-width:2px;}</style></defs><g id="Layer_2" data-name="Layer 2"><g id="Layer_1-2" data-name="Layer 1"><rect class="cls-1" x="0.5" y="27.76" width="108.3" height="10.78" rx="3.89"/><circle class="cls-2" cx="54.41" cy="33.15" r="32.15"/><path class="cls-3" d="M46.57,21.69l7.94,23.5,8-23.67c.41-1.24.72-2.11.93-2.59a3.45,3.45,0,0,1,1-1.32,3,3,0,0,1,2-.58,3.37,3.37,0,0,1,2.9,1.66,2.92,2.92,0,0,1,.44,1.52,4.65,4.65,0,0,1-.14,1.13,8.29,8.29,0,0,1-.36,1.2l-.43,1.2-8.48,22.9c-.31.88-.61,1.71-.91,2.5a10.92,10.92,0,0,1-1,2.08,4.69,4.69,0,0,1-1.59,1.47,5.42,5.42,0,0,1-4.86,0,4.55,4.55,0,0,1-1.6-1.48,11,11,0,0,1-1.06-2.09c-.3-.78-.61-1.61-.91-2.49L40,23.94c-.15-.42-.29-.83-.44-1.22a9.29,9.29,0,0,1-.39-1.29A5.83,5.83,0,0,1,39,20.25,3.09,3.09,0,0,1,40,18a3.28,3.28,0,0,1,2.46-1A2.88,2.88,0,0,1,45,18.14,14.55,14.55,0,0,1,46.57,21.69Z"/></g></g></svg>