<svg xmlns="http://www.w3.org/2000/svg" viewBox="0 0 109.3 77.85"><defs><style>.cls-1{fill:#2e2e2e;stroke:#000;stroke-miterlimit:10;}</style></defs><g id="Layer_2" data-name="Layer 2"><g id="Layer_1-2" data-name="Layer 1"><path class="cls-1" d="M48.85,73.46l0-29.78H4.39A3.89,3.89,0,0,1,.5,39.79v-3.1A3.89,3.89,0,0,1,4.39,32.8H48.82L49,4.36A3.88,3.88,0,0,1,52.92.5h3.36a3.89,3.89,0,0,1,3.89,3.92L60,32.8h44.95a3.89,3.89,0,0,1,3.89,3.89v3.1a3.89,3.89,0,0,1-3.89,3.89H60.36l0,29.77a3.9,3.9,0,0,1-3.89,3.9H52.74A3.89,3.89,0,0,1,48.85,73.46Z"/></g></g></svg>